<svg xmlns="http://www.w3.org/2000/svg" width="2291" height="2180.743" viewBox="0 0 2291 2180.743"><g transform="translate(-407 -540.984)"><g transform="translate(918.406 1290.709)"><path d="M1690.914,1392.994a1864.719,1864.719,0,0,0,296.948-603.243c30.367-107.429,51.155-219.064,43.106-330.417S1983.984,236.3,1907.46,155.007C1848.862,92.759,1770.88,50.919,1689,26.348c-193.876-58.177-414.5-18.449-575.907,103.7-29.232,22.123-70.478,21.1-105.229,9.424s-65.593-32.508-98.768-48.108C831.149,54.714,742.683,47.917,656.55,47.826c-159.153-.168-326.837,24.048-452.515,121.7C95.252,254.042,30.015,386.5,8.759,522.614S7.072,798.543,44.44,931.136A1552.582,1552.582,0,0,0,250.116,1375.6c81.856,121.7,186.628,235.557,323.932,287.114s311.783,24.82,399.319-92.856a333.544,333.544,0,0,0,185.048,111.692c104.472,22.274,215.3-7.961,305.8-64.7s162.973-138.117,226.7-223.848Z" transform="translate(-511.406 -424.909)" fill="#e84457"/><path d="M626.146,278.694c.505-8.05-2.635-15.845-5.95-23.2C571.61,147.723,473.44,67.208,363.691,23.269c-18.959-7.59-38.382-14.219-58.429-18.115C280.929.424,255.989-.222,231.2.054A1015.159,1015.159,0,0,0,68.73,14.988C50.2,18.21,30.765,22.434,16.885,35.12a53.331,53.331,0,0,0-15.2,52.041C6.368,104.616,19.6,118.287,32.462,130.98c72.019,71.052,149.35,138.549,239.6,184.278s195.188,68.369,293.882,46.133c14.523-3.273,30.6-8.964,36.51-22.626q9.206-21.281,18.409-42.558c2.434-5.627,4.9-11.394,5.288-17.512M172.432,5.529" transform="translate(-89.406 -749.724)" fill="#70ad2f"/><path d="M10.063,371.99c3.059,18.331,19.673,33.493,38.207,34.867S85.472,395.685,91.2,378c5.819-17.959-.931-37.207-4.73-55.7-8.72-42.45-1.5-86.873,12.761-127.8s35.332-79.057,55.232-117.553c6.582-12.733,13.224-26.36,12.121-40.652A40.351,40.351,0,0,0,142.122,2.792a40.351,40.351,0,0,0-40.916,6.887C94.36,15.687,89.823,23.833,85.422,31.807,45.532,104.083,4.684,179.58.387,262.021c-1.919,36.825,3.607,73.6,9.676,109.97" transform="translate(492.594 -588.309)" fill="#aa7341"/><path d="M0,76.84C0,87.687,0,98.534.5,110.6c4.836,24.138,15.482,43.55,35.727,55.531C47.585,172.848,60.96,176.156,73.425,181c13.123,0,26.247,0,40.583-.5,28.482-6,46.628-21.526,54.03-48.741,2.183-8.023,4.1-16.119,6.132-24.181,0-8.573,0-17.147-.507-26.948-2.814-16.877-8.081-31.706-18.675-43.295C139.939,20.872,127.139.091,100.281,1.062c-.4.015-.828-.692-1.243-1.062C89.9,0,80.755,0,70.432.5,47.039,6.354,32.467,21.912,18.216,38.336,8.413,49.633,4.508,63.275,0,76.84Z" transform="translate(-123.406 182.291)" fill="#3d3d3c"/><path d="M132.924,14.3c-5.009-3.715-8.047-10.47-14.126-11.86C88.026-4.6,53.922,3.793,30.545,25S-4.507,79.867,1.609,110.835,31.8,168.767,62.136,177.483c10.98,3.153,22.5,4.033,33.926,3.905,15.457-.172,31.441-2.346,44.561-10.52,13.165-8.2,22.269-21.812,27.727-36.331C184.128,92.567,168.938,41.01,132.924,14.3Z" transform="translate(906.623 145.291)" fill="#3d3c3c"/><path d="M464.849,8.3C447.3,4.795,428,15.426,421.575,32.129c-5.721,14.884-1.726,31.464.557,47.246,4.768,32.968,1.676,66.509-1.422,99.675-3.422,36.639-7.365,74.846-27.175,105.857-31.077,48.647-97.5,67.584-153.061,51.909S140.857,276.137,115.92,224.075,83.188,113.342,81.7,55.635c-.282-10.979-.425-22.326-4.933-32.341A40.466,40.466,0,0,0,40.489,0,40.466,40.466,0,0,0,4.506,23.756C.662,32.6.179,42.49.045,52.129a478.917,478.917,0,0,0,42.97,204.591c10.658,23.367,23.252,45.938,38.818,66.365,51.321,67.342,137.529,108.352,221.737,99.525S465.727,352.524,488.6,271c6.173-22,8.507-44.873,10.464-67.641q4.581-53.3,6.587-106.774c.665-17.713,1.055-35.875-4.644-52.659S482.232,11.764,464.849,8.3Z" transform="translate(218.594 391.291)" fill="#3c3c3b"/><path d="M959.893,65.367C940.676,34.42,909.215,11.075,873.759,2.708S799.288,1.354,769.574,22.428c-17.065,12.1-30.851,28.4-41.938,46.143-23.342,37.355-35.058,84.152-21.87,126.178,11.815,37.645,42.8,67.667,79.168,82.957,34.3,14.42,75.026,16.233,108.095-.824,31.236-16.111,52.437-46.784,67.429-78.573,11.071-23.472,19.59-48.924,18.382-74.848C977.883,102.892,970.754,82.86,959.893,65.367Z" transform="translate(241.839 461.024)" fill="#f193a4"/><path d="M70.058,23.409C29.17,51.715,2.345,100.138,2.27,149.869S29.8,248.98,73.3,273.085s101.3,20.8,140.5-9.792c21.919-17.107,37.407-41.236,49.015-66.5,8.775-19.1,15.63-39.4,16.89-60.383C283.351,75.664,235.446,18.329,176.422,3.525c-18.47-4.633-37.954-5.681-56.627-1.951C101.915,5.146,85.049,13.031,70.058,23.409Z" transform="translate(-281.676 461.059)" fill="#f193a4"/></g><g transform="translate(2056.36 2418.287)"><path d="M723.63,953.5c41.762-10.48,83.922-21.676,121.46-42.764,48.766-27.395,86.974-69.872,124.242-111.581,45.2-50.59,90.794-101.718,123.8-160.988,20.807-37.358,36.529-78.323,39.377-120.989,4.052-60.723-17.935-119.819-39.569-176.7-15.4-40.5-31.414-82.018-60.4-114.23C937.219,120.3,808.876,43.419,669.316,14.539A711.494,711.494,0,0,0,566.91,1.308c-125.426-7.376-254.986,15.969-361.878,82S16.6,261.093,2.379,385.929c-15.1,132.588,44.02,261.928,111.238,377.207,33.62,57.66,70.721,115.105,123.413,156.077,66.554,51.75,153.071,72.7,237.375,73.093S641.86,974.02,723.63,953.5Z" transform="translate(-491.36 -688.873)" fill="#f49b1c"/><path d="M546.314,88.955c7.223,3.637,15.4,4.98,23.471,5.417,10.284.556,21.3-.529,29.454-6.821a36.152,36.152,0,0,0,9.221-11.242,55.938,55.938,0,0,0-.931-54.845C597.4,4.613,575.948-6.079,557.295.122a45.682,45.682,0,0,0-16.7,10.409c-11.165,10.547-18.165,25.765-17.5,41.11S532.595,82.048,546.314,88.955Z" transform="translate(-223.002 -326.567)" fill="#3c3c3b"/><path d="M3.623,65.873A41.894,41.894,0,0,0,16.678,84.384c8.5,6.67,19.583,9.128,30.362,9.891,9.711.687,20.038-.015,28.173-5.362,6.556-4.31,11.019-11.257,13.772-18.6,8.369-22.336.858-49.649-17.755-64.566A34.124,34.124,0,0,0,60.771-.268,32.766,32.766,0,0,0,50.117-1.713,51.045,51.045,0,0,0,9.341,20.021,51.045,51.045,0,0,0,3.623,65.873Z" transform="translate(-297.496 -326.575)" fill="#3c3c3b"/><path d="M428.791,198.463A21.391,21.391,0,0,0,397.1,173.257c-13.491,8.654-13.075,28.022-12.5,44.039a275.507,275.507,0,0,1-9.311,81.54c-3.772,13.982-8.887,28.072-18.634,38.783-17.087,18.776-46.3,23.417-70.315,15.179S243.3,325.316,230.52,303.383a157.4,157.4,0,0,1-20.72-91.6c.785-9.459,2.421-19.1.255-28.339s-9.462-18.158-18.947-18.505c-7.858-.289-14.964,5.451-18.537,12.455s-4.276,15.084-4.63,22.938c-1.859,41.085,4.357,83.293,23.73,119.571s52.967,66.023,93.053,75.215,85.992-4.783,109.961-38.2c10.026-13.981,15.958-30.477,20.409-47.1a316.888,316.888,0,0,0,10.769-81.793C425.866,218.068,425.439,207.837,428.791,198.463Z" transform="translate(-273.68 -302.815)" fill="#3c3c3b"/><path d="M.917,80.881c.164,25.917,17.866,49.845,41.062,61.406,17.023,8.485,37.66,10.923,55.2,3.565s30.012-23.37,38.771-40.247c5.829-11.233,10.431-23.384,10.971-36.027.768-18-7.044-35.88-19.656-48.751C105.136-1.753,67.038-7.707,40.347,9.233,27.461,17.411,17.809,29.961,10.88,43.558,4.977,55.142.834,67.88.917,80.881" transform="translate(-392.563 -158.987)" fill="#e84457"/><path d="M766.648,61.7c-9.027-15.941-23.534-28.9-40.75-35.159s-37.042-5.55-53.35,2.8c-17.092,8.747-29.355,25.053-36.914,42.7-6.088,14.217-9.49,30.057-6.52,45.234,2.667,13.627,10.386,25.97,20.478,35.507,22.957,21.7,61.225,27.823,86.909,9.439,19.34-13.845,28.354-37.649,36.344-60.052,1.281-3.59-1.34-11.322.59-11.049M705.641,171.66Z" transform="translate(-306.369 -155.84)" fill="#e84457"/><path d="M.567,187.429c-2.409,16.027,3.29,32.041,8.9,47.246,2.224,6.031,9.56,8.13,15.908,9.138,51.383,8.159,105.269-1.388,151.16-25.9S260.157,154.182,283.7,107.787c8.572-16.893,15.294-34.649,22-52.366,4.361-11.525,8.762-24.2,4.814-35.874C305.653,5.18,288.267-2.676,273.511.83c-51.787,12.306-103.4,27.47-150.174,52.882S34.571,115.558,9.708,162.625c-4.136,7.83-7.824,16.048-9.14,24.8" transform="translate(120.783 -976.51)" fill="#70ad2f"/><path d="M30.639,1.711A22.631,22.631,0,0,0,5.36,7.362,22.63,22.63,0,0,0,2.952,33.153C41.23,97.626,52.026,175.641,45.4,250.328c-1.03,11.608,7.374,23.553,18.816,25.765s24.063-6.4,25.471-17.966A416.57,416.57,0,0,0,49.214,23.469C44.865,14.75,39.579,5.586,30.639,1.711" transform="translate(47.42 -868.02)" fill="#aa7341"/></g></g></svg>