<svg xmlns="http://www.w3.org/2000/svg" width="108" height="108" viewBox="0 0 108 108"><g transform="translate(-371 -667)"><rect width="108" height="108" transform="translate(371 667)" fill="none"/><g transform="translate(383 682.984)"><path d="M59.3,48.855A65.4,65.4,0,0,0,69.718,27.7,33.881,33.881,0,0,0,71.23,16.11,17.361,17.361,0,0,0,66.9,5.436,17.261,17.261,0,0,0,59.237.924a23.053,23.053,0,0,0-20.2,3.637,4.044,4.044,0,0,1-3.691.331A33.483,33.483,0,0,1,31.884,3.2a20.762,20.762,0,0,0-8.857-1.527c-5.582-.006-11.463.843-15.871,4.268A19.408,19.408,0,0,0,.307,18.329,33.873,33.873,0,0,0,1.559,32.657,54.452,54.452,0,0,0,8.772,48.245c2.871,4.268,6.545,8.261,11.361,10.07s10.935.871,14-3.257a11.7,11.7,0,0,0,6.49,3.917,14.769,14.769,0,0,0,10.725-2.269A30.341,30.341,0,0,0,59.3,48.855Z" transform="translate(0 11.392)" fill="#e84457"/><path d="M21.96,9.774a1.756,1.756,0,0,0-.209-.814,16.419,16.419,0,0,0-9-8.145A11.388,11.388,0,0,0,10.706.181,12.852,12.852,0,0,0,8.109,0a35.6,35.6,0,0,0-5.7.524,3.511,3.511,0,0,0-1.818.706A1.87,1.87,0,0,0,.059,3.057,3.615,3.615,0,0,0,1.139,4.594a34.456,34.456,0,0,0,8.4,6.463,15.563,15.563,0,0,0,10.307,1.618,1.7,1.7,0,0,0,1.28-.794l.646-1.493a1.874,1.874,0,0,0,.185-.614M6.048.194" transform="translate(14.8 0)" fill="#70ad2f"/><path d="M.353,13.046a1.513,1.513,0,0,0,1.34,1.223A1.513,1.513,0,0,0,3.2,13.257,3.891,3.891,0,0,0,3.033,11.3,8.528,8.528,0,0,1,3.48,6.822,32.182,32.182,0,0,1,5.417,2.7a2.745,2.745,0,0,0,.425-1.426A1.415,1.415,0,0,0,4.985.1,1.415,1.415,0,0,0,3.55.339,2.778,2.778,0,0,0,3,1.116C1.6,3.65.164,6.3.014,9.19a17.868,17.868,0,0,0,.339,3.857" transform="translate(35.212 5.661)" fill="#aa7341"/><path d="M0,2.695c0,.38,0,.761.018,1.184A2.737,2.737,0,0,0,1.271,5.826a8.722,8.722,0,0,0,1.3.522c.46,0,.921,0,1.423-.018A2.268,2.268,0,0,0,5.893,4.621c.077-.281.144-.565.215-.848,0-.3,0-.6-.018-.945a2.872,2.872,0,0,0-.655-1.518C4.908.732,4.459,0,3.517.037,3.5.038,3.488.013,3.473,0c-.321,0-.641,0-1,.017A3.583,3.583,0,0,0,.639,1.345,3.723,3.723,0,0,0,0,2.695Z" transform="translate(13.608 32.688)" fill="#3d3d3c"/><path d="M4.662.5c-.176-.13-.282-.367-.5-.416a3.514,3.514,0,0,0-3.1.791A3.292,3.292,0,0,0,.056,3.887,3.1,3.1,0,0,0,2.179,6.225a4.141,4.141,0,0,0,1.19.137,3,3,0,0,0,1.563-.369A2.517,2.517,0,0,0,5.9,4.718,3.757,3.757,0,0,0,4.662.5Z" transform="translate(49.733 31.39)" fill="#3d3c3c"/><path d="M16.3.291a1.389,1.389,0,0,0-1.518.836,3.317,3.317,0,0,0,.02,1.657,14.826,14.826,0,0,1-.05,3.5A8.2,8.2,0,0,1,13.8,9.992a4.892,4.892,0,0,1-5.368,1.821A7.255,7.255,0,0,1,4.066,7.859a14.485,14.485,0,0,1-1.2-5.908A2.923,2.923,0,0,0,2.693.817,1.419,1.419,0,0,0,1.42,0,1.419,1.419,0,0,0,.158.833a2.57,2.57,0,0,0-.156,1A16.8,16.8,0,0,0,1.509,9,12.115,12.115,0,0,0,2.87,11.331a8.87,8.87,0,0,0,7.777,3.491A7.66,7.66,0,0,0,17.136,9.5,12.811,12.811,0,0,0,17.5,7.132q.161-1.869.231-3.745a5.13,5.13,0,0,0-.163-1.847A1.82,1.82,0,0,0,16.3.291Z" transform="translate(25.603 40.018)" fill="#3c3c3b"/><path d="M709.357,1.585a4.952,4.952,0,0,0-3.021-2.2,4.579,4.579,0,0,0-3.654.692A5.586,5.586,0,0,0,701.211,1.7a5.452,5.452,0,0,0-.767,4.425,4.849,4.849,0,0,0,2.777,2.909A4.545,4.545,0,0,0,707.012,9a5.708,5.708,0,0,0,2.365-2.756,5.634,5.634,0,0,0,.645-2.625A4.278,4.278,0,0,0,709.357,1.585Z" transform="translate(-649.274 43.171)" fill="#f193a4"/><path d="M4.648.159A5.525,5.525,0,0,0,2.27,4.594,5.011,5.011,0,0,0,4.761,8.916a4.587,4.587,0,0,0,4.928-.343A6.158,6.158,0,0,0,11.408,6.24,5.986,5.986,0,0,0,12,4.122,4.774,4.774,0,0,0,8.378-.538,4.542,4.542,0,0,0,6.392-.607,4.714,4.714,0,0,0,4.648.159Z" transform="translate(5.867 43.127)" fill="#f193a4"/></g><g transform="translate(423.613 714.577)"><path d="M25.379,33.441a17.066,17.066,0,0,0,4.26-1.5A17.9,17.9,0,0,0,34,28.028a32.337,32.337,0,0,0,4.342-5.646,10.233,10.233,0,0,0,1.381-4.243,14.967,14.967,0,0,0-1.388-6.2,12.4,12.4,0,0,0-2.118-4.006A23.84,23.84,0,0,0,23.474.51,24.953,24.953,0,0,0,19.883.046,21.763,21.763,0,0,0,7.191,2.922,14.854,14.854,0,0,0,.083,13.535c-.53,4.65,1.544,9.186,3.9,13.229a18.452,18.452,0,0,0,4.328,5.474A13.636,13.636,0,0,0,16.638,34.8,35.468,35.468,0,0,0,25.379,33.441Z" transform="translate(0 10.088)" fill="#f49b1c"/><path d="M523.87,1.52a2.071,2.071,0,0,0,.823.19,1.541,1.541,0,0,0,1.033-.239,1.268,1.268,0,0,0,.323-.394,1.962,1.962,0,0,0-.033-1.924,1.58,1.58,0,0,0-1.762-.748,1.6,1.6,0,0,0-.586.365,1.912,1.912,0,0,0-.614,1.442A1.555,1.555,0,0,0,523.87,1.52Z" transform="translate(-495.297 24.395)" fill="#3c3c3b"/><path d="M.7.655a1.469,1.469,0,0,0,.458.649,1.927,1.927,0,0,0,1.065.347,1.586,1.586,0,0,0,.988-.188A1.32,1.32,0,0,0,3.7.81a2.057,2.057,0,0,0-.623-2.264,1.2,1.2,0,0,0-.367-.211,1.149,1.149,0,0,0-.374-.051A1.79,1.79,0,0,0,.9-.953,1.79,1.79,0,0,0,.7.655Z" transform="translate(6.223 24.45)" fill="#3c3c3b"/><path d="M176.787,166.1a.75.75,0,0,0-1.111-.884c-.473.3-.459.983-.438,1.545a9.662,9.662,0,0,1-.327,2.86,3.226,3.226,0,0,1-.654,1.36,2.354,2.354,0,0,1-2.466.532,3.787,3.787,0,0,1-1.958-1.733,5.52,5.52,0,0,1-.727-3.213,3.2,3.2,0,0,0,.009-.994.79.79,0,0,0-.665-.649.746.746,0,0,0-.65.437,1.948,1.948,0,0,0-.162.8,8.126,8.126,0,0,0,.832,4.194A5.134,5.134,0,0,0,171.734,173a3.778,3.778,0,0,0,3.857-1.34,5.037,5.037,0,0,0,.716-1.652,11.114,11.114,0,0,0,.378-2.869A3.065,3.065,0,0,1,176.787,166.1Z" transform="translate(-154.114 -135.513)" fill="#3c3c3b"/><path d="M.916,2.342A2.53,2.53,0,0,0,2.356,4.5a2.362,2.362,0,0,0,1.936.125,2.91,2.91,0,0,0,1.36-1.412,3.066,3.066,0,0,0,.385-1.264A2.349,2.349,0,0,0,5.347.236,2.521,2.521,0,0,0,2.3-.171a3.025,3.025,0,0,0-1.033,1.2A2.878,2.878,0,0,0,.916,2.342" transform="translate(2.581 29.167)" fill="#e84457"/><path d="M632.886,23.762a2.755,2.755,0,0,0-1.429-1.233,2.376,2.376,0,0,0-1.871.1,2.943,2.943,0,0,0-1.295,1.5,2.742,2.742,0,0,0-.229,1.586,2.373,2.373,0,0,0,.718,1.245,2.489,2.489,0,0,0,3.048.331,4.165,4.165,0,0,0,1.275-2.106c.045-.126-.047-.4.021-.388m-2.378,2.825Z" transform="translate(-599.51 7.185)" fill="#e84457"/><path d="M.02,6.574A3.418,3.418,0,0,0,.332,8.231c.078.212.335.285.558.32a8.518,8.518,0,0,0,5.3-.908A9.031,9.031,0,0,0,9.95,3.78a18.5,18.5,0,0,0,.772-1.837A1.909,1.909,0,0,0,10.89.686a1.119,1.119,0,0,0-1.3-.656A21.217,21.217,0,0,0,4.326,1.884,9.607,9.607,0,0,0,.34,5.7a2.774,2.774,0,0,0-.321.87" transform="translate(21.469 0)" fill="#70ad2f"/><path d="M1.075.06a.794.794,0,0,0-.887.2.794.794,0,0,0-.084.9A12.739,12.739,0,0,1,1.592,8.78a.865.865,0,0,0,.66.9.778.778,0,0,0,.893-.63A14.61,14.61,0,0,0,1.726.823,1.485,1.485,0,0,0,1.075.06" transform="translate(18.896 3.805)" fill="#aa7341"/></g></g></svg>