<svg xmlns="http://www.w3.org/2000/svg" width="3254.531" height="1165.298" viewBox="0 0 3254.531 1165.298"><g transform="translate(-206.499 -452.721)"><g transform="translate(192.524 388)"><path d="M383.2-161.068H303.977q-1.053,19.476-2.105,24.739-3.948,21.055-20.134,33.556t-37.5,12.5q-16.054,0-28.161-5.79a46.7,46.7,0,0,1-18.818-15.528,98.945,98.945,0,0,1-11.317-22.371,98.524,98.524,0,0,1-5.658-26.318q-1.053-13.686-1.842-27.5a208.38,208.38,0,0,1,0-25.66v-11.58q0-12.37.263-21.055t1.579-21.581a147.968,147.968,0,0,1,3.685-21.976,109.249,109.249,0,0,1,7.106-19.081,56.288,56.288,0,0,1,11.185-16.317,50.617,50.617,0,0,1,16.317-10.4,57.743,57.743,0,0,1,22.239-4.079q16.581,0,29.213,7.238A51.529,51.529,0,0,1,289.5-313.188a92.919,92.919,0,0,1,10,25.134,108.5,108.5,0,0,1,2.9,27.24h78.429l-.263-166.332h-81.85l-8.948,18.686q-11.843-11.317-29.608-17.5t-31.714-7.5q-13.949-1.316-33.424-1.316-37.109,0-67.638,12.9T76.323-387.406a198.1,198.1,0,0,0-34.609,50.663,252.772,252.772,0,0,0-20.4,60.4A326.726,326.726,0,0,0,15-211.6q0,66.322,22.5,115.143A170.615,170.615,0,0,0,105.931-20q45.926,27.634,111.2,27.634a241.031,241.031,0,0,0,54.611-6.316Q298.977-5,318.189-13.817t34.477-17.765q15.265-8.948,22.9-15.265l7.632-6.316ZM644.8-94.483H612.955v-88.167h25.792q15.791,0,25.792,4.474a30.059,30.059,0,0,1,14.87,13.817,65.437,65.437,0,0,1,6.58,19.739A163.763,163.763,0,0,1,687.7-118.7v51.321A87.955,87.955,0,0,0,689.8-47.5a75.982,75.982,0,0,0,5.264,15.659,37.817,37.817,0,0,0,8.817,11.712,82.893,82.893,0,0,0,10.791,8.422A50.983,50.983,0,0,0,728.1-6.053q8.29,2.369,14.344,3.553A119.263,119.263,0,0,0,758.364-.79q9.869.526,15.791.658T790.34,0h68.954V-94.483q-14.738,0-23.555-1.711t-13.028-5.79a18.732,18.732,0,0,1-5.4-8.553,49.2,49.2,0,0,1-1.184-12.106V-147.12q0-24.213-16.844-40.267t-56.058-25q45.268-8.422,69.875-32.9t24.608-62.638q0-32.372-9.738-55.663T799.42-400.7a124.9,124.9,0,0,0-43.688-20.134q-24.871-6.316-57.242-6.316H431.358v92.9h40.793v239.76h-40.53V.263Q575.319,0,644.8,0ZM611.375-242.129v-92.114h31.845q23.423,0,36.714,12.5t13.291,33.293q0,13.159-5.527,22.634a36.782,36.782,0,0,1-15.265,14.475,76.813,76.813,0,0,1-20.66,7.106,129.068,129.068,0,0,1-24.344,2.105Zm762.18-185.018-.263,92.9h37.9L1503.042,0h141.33l53.163-185.808L1748.329,0h142.909l84.482-302.135q5.264-18.686,16.449-25.4t33.293-6.711v-92.9H1854.128v92.9q19.476,0,25.792,3.29t3.158,14.87l-35.53,131.065-66.585-242.129H1673.321l-68.428,250.288-41.846-157.384h37.109v-92.9ZM2047.832,0H2258.9q53.163,0,96.062-17.633t70.007-47.5a211.684,211.684,0,0,0,41.583-68.3,228.753,228.753,0,0,0,14.475-81.324q0-104.221-53.953-158.3t-162.384-54.084H2046.252v92.641h44.478V-94.483h-42.9Zm186.86-94.483V-334.506h12.37q19.475,0,33.951,7.5t22.634,18.949q8.159,11.448,13.028,28.029a178.586,178.586,0,0,1,6.448,31.714,322.385,322.385,0,0,1,1.579,33.293,269.7,269.7,0,0,1-1.974,33.424,165.773,165.773,0,0,1-7.5,32.24,100.849,100.849,0,0,1-14.212,28.161,65.778,65.778,0,0,1-23.292,19.212q-14.607,7.5-33.819,7.5Z" transform="translate(391.742 622)"/><path d="M354.375,0h72.773V-227.285H262.354v80.156l42.188.264q2.109,7.647,2.109,21.357,0,19.248-15.029,30.454T256.553-83.848q-83.057,0-83.057-116.279,0-16.611,1.055-30.454t3.955-30.586a117.878,117.878,0,0,1,8.833-29.531,114.143,114.143,0,0,1,14.9-23.862,57.847,57.847,0,0,1,23.2-17.007q14.238-5.933,32.7-5.933,16.611,0,29.136,4.878t20.039,12.393q7.515,7.515,12.788,19.907a135.541,135.541,0,0,1,7.778,23.73,274.67,274.67,0,0,1,4.351,27.422h75.938v-178.77H325.107l-11.6,16.348q-33.75-23.994-87.8-23.994-50.361,0-91.1,17.93T67.764-368.613Q41.66-337.5,27.817-296.631t-13.843,87.8q0,40.605,11.206,75.41T56.689-72.905A200.114,200.114,0,0,0,104.941-29,216.8,216.8,0,0,0,166.9-1.582,274.85,274.85,0,0,0,239.15,7.646q65.918,0,104.15-34.277ZM693.984-94.658h-31.9v-88.33h25.84q15.82,0,25.84,4.482a30.115,30.115,0,0,1,14.9,13.843,65.558,65.558,0,0,1,6.592,19.775,164.065,164.065,0,0,1,1.714,25.972V-67.5a88.117,88.117,0,0,0,2.109,19.907A76.124,76.124,0,0,0,744.346-31.9a37.887,37.887,0,0,0,8.833,11.733,83.048,83.048,0,0,0,10.811,8.438,51.077,51.077,0,0,0,13.447,5.669q8.306,2.373,14.37,3.56A119.484,119.484,0,0,0,807.759-.791q9.888.527,15.82.659T839.795,0h69.082V-94.658q-14.766,0-23.6-1.714t-13.052-5.8a18.767,18.767,0,0,1-5.405-8.569,49.287,49.287,0,0,1-1.187-12.129v-24.521q0-24.258-16.875-40.342T792.6-212.783q45.352-8.437,70-32.959T887.256-308.5q0-32.432-9.756-55.767T848.892-401.44a125.131,125.131,0,0,0-43.77-20.171q-24.917-6.328-57.349-6.328H480.146v93.076h40.869V-94.658H480.41V.264Q624.375,0,693.984,0ZM660.5-242.578v-92.285h31.9q23.467,0,36.782,12.524T742.5-288.984q0,13.184-5.537,22.676a36.85,36.85,0,0,1-15.293,14.5,76.956,76.956,0,0,1-20.7,7.119,129.307,129.307,0,0,1-24.39,2.109Zm763.594-185.361-.264,93.076H1461.8L1553.818,0H1695.41l53.262-186.152L1799.561,0h143.174l84.639-302.7q5.273-18.721,16.479-25.444t33.354-6.724v-93.076h-171.65v93.076q19.512,0,25.84,3.3t3.164,14.9l-35.6,131.309-66.709-242.578H1724.414l-68.555,250.752-41.924-157.676h37.178v-93.076Zm939.463,172.705-20.039-79.629h-56.162v74.355h54.053V-167.7h-54.053v73.037H2345.1l3.428-16.084,16.611-70.4h71.982V0H2099.883V-94.658h41.66V-334.863h-41.66v-93.076h334.336V-255.5ZM2707.119-94.658h-31.9v-88.33h25.84q15.82,0,25.84,4.482a30.115,30.115,0,0,1,14.9,13.843,65.558,65.558,0,0,1,6.592,19.775,164.065,164.065,0,0,1,1.714,25.972V-67.5a88.117,88.117,0,0,0,2.109,19.907A76.124,76.124,0,0,0,2757.48-31.9a37.887,37.887,0,0,0,8.833,11.733,83.048,83.048,0,0,0,10.811,8.438,51.077,51.077,0,0,0,13.447,5.669q8.306,2.373,14.37,3.56a119.484,119.484,0,0,0,15.952,1.714q9.888.527,15.82.659T2852.93,0h69.082V-94.658q-14.766,0-23.6-1.714t-13.052-5.8a18.767,18.767,0,0,1-5.405-8.569,49.293,49.293,0,0,1-1.187-12.129v-24.521q0-24.258-16.875-40.342t-56.162-25.049q45.352-8.437,70-32.959t24.653-62.754q0-32.432-9.756-55.767t-28.608-37.178a125.131,125.131,0,0,0-43.77-20.171q-24.917-6.328-57.349-6.328H2493.281v93.076h40.869V-94.658h-40.605V.264Q2637.51,0,2707.119,0Zm-33.486-147.92v-92.285h31.9q23.467,0,36.782,12.524t13.315,33.354q0,13.184-5.537,22.676a36.85,36.85,0,0,1-15.293,14.5,76.956,76.956,0,0,1-20.7,7.119,129.307,129.307,0,0,1-24.39,2.109ZM3162.48-427.939q-7.383,12.656-8.437,15.82-31.377-23.73-82.266-23.73-58.8,0-89.517,37.178t-30.718,99.932a197.506,197.506,0,0,0,2.5,32.432,165.786,165.786,0,0,0,6.724,27.158,107.322,107.322,0,0,0,11.074,22.808,131.442,131.442,0,0,0,14.5,18.853,115.409,115.409,0,0,0,18.193,15.557,200.759,200.759,0,0,0,20.7,12.788,226.285,226.285,0,0,0,23.6,10.679q13.447,5.273,25.313,9.1t27.422,8.306a117.091,117.091,0,0,1,16.348,5.537,36.686,36.686,0,0,1,12.393,9.36,22.3,22.3,0,0,1,5.8,15.425q0,10.811-8.569,16.743a34.551,34.551,0,0,1-20.171,5.933q-19.248,0-36.914-14.634t-24.521-33.882h-84.9V0H3046.2l9.492-24.258Q3076.26-6.855,3095.112.4t47.329,7.251a114.773,114.773,0,0,0,51.812-12,121.162,121.162,0,0,0,40.342-31.772,150.235,150.235,0,0,0,25.313-45.352,146.754,146.754,0,0,0,8.569-52.471q-.527-27.422-7.515-49.7t-18.325-37.178a146.851,146.851,0,0,0-25.84-26.367,138.833,138.833,0,0,0-30.454-18.457q-15.952-6.987-31.9-12.524t-30.322-9.624q-14.37-4.087-25.444-8.306t-17.534-10.02q-6.46-5.8-6.46-13.711,0-12.129,6.592-18.193t18.193-6.064q19.775,0,36.123,15.82t21.094,36.387h80.947V-427.939Z" transform="translate(0 1216.314)"/></g><g transform="translate(1638.078 1893.651)"><path d="M398.093,327.953A439.013,439.013,0,0,0,468,185.931c7.149-25.292,12.043-51.574,10.148-77.79s-11.061-52.509-29.077-71.648c-13.8-14.655-32.155-24.506-51.433-30.29C352-7.493,300.055,1.86,262.056,30.618c-6.882,5.208-16.593,4.968-24.774,2.219s-15.443-7.653-23.253-11.326c-18.351-8.629-39.178-10.229-59.456-10.251C117.1,11.22,77.624,16.921,48.036,39.911,22.425,59.809,7.066,91,2.062,123.039s-.4,64.962,8.4,96.179a365.525,365.525,0,0,0,48.422,104.64c19.271,28.651,43.938,55.457,76.263,67.6s73.4,5.843,94.012-21.861a78.526,78.526,0,0,0,43.566,26.3c24.6,5.244,50.687-1.874,71.995-15.233s38.369-32.517,53.372-52.7Z" transform="translate(-511.406 -673.253)" fill="#e84457"/><path d="M147.414,65.613a11.791,11.791,0,0,0-1.4-5.461C134.575,34.778,111.462,15.823,85.624,5.478A76.444,76.444,0,0,0,71.868,1.213,86.271,86.271,0,0,0,54.432.013,239,239,0,0,0,16.181,3.529c-4.362.758-8.938,1.753-12.206,4.74A12.556,12.556,0,0,0,.4,20.52c1.1,4.11,4.217,7.328,7.246,10.316C24.6,47.564,42.8,63.455,64.051,74.221S110,90.317,133.24,85.082c3.419-.771,7.2-2.11,8.6-5.327l4.334-10.02a12.582,12.582,0,0,0,1.245-4.123M40.6,1.3" transform="translate(-412.054 -749.724)" fill="#70ad2f"/><path d="M2.369,87.578a10.159,10.159,0,0,0,9,8.209,10.159,10.159,0,0,0,10.107-6.793c1.37-4.228-.219-8.76-1.114-13.113-2.053-9.994-.353-20.453,3-30.087s8.318-18.612,13-27.675c1.55-3,3.113-6.206,2.854-9.571A9.5,9.5,0,0,0,33.46.657a9.5,9.5,0,0,0-9.633,1.621,18.647,18.647,0,0,0-3.716,5.21C10.72,24.5,1.1,42.279.091,61.688c-.452,8.67.849,17.327,2.278,25.89" transform="translate(-275.034 -711.722)" fill="#aa7341"/><path d="M0,18.09c0,2.554,0,5.108.118,7.947C1.257,31.721,3.763,36.291,8.53,39.111c2.673,1.582,5.822,2.361,8.757,3.5,3.09,0,6.179,0,9.554-.118,6.706-1.413,10.978-5.068,12.72-11.475.514-1.889.964-3.795,1.444-5.693,0-2.018,0-4.037-.119-6.344-.663-3.973-1.9-7.465-4.4-10.193C32.946,4.914,29.932.022,23.609.25c-.094,0-.2-.163-.293-.25-2.152,0-4.3,0-6.735.117C11.074,1.5,7.644,5.159,4.289,9.026,1.981,11.685,1.061,14.9,0,18.09Z" transform="translate(-420.059 -530.299)" fill="#3d3d3c"/><path d="M31.294,3.367C30.115,2.492,29.4.9,27.969.574A23.588,23.588,0,0,0,7.191,5.887,22.1,22.1,0,0,0,.379,26.094a20.79,20.79,0,0,0,14.25,15.691,27.8,27.8,0,0,0,7.987.919c3.639-.04,7.4-.552,10.491-2.477a16.9,16.9,0,0,0,6.528-8.553A25.22,25.22,0,0,0,31.294,3.367Z" transform="translate(-177.558 -539.01)" fill="#3d3c3c"/><path d="M109.44,1.953A9.322,9.322,0,0,0,99.252,7.564c-1.347,3.5-.406,7.408.131,11.123,1.123,7.762.395,15.658-.335,23.467-.806,8.626-1.734,17.621-6.4,24.922C85.334,78.529,69.695,82.987,56.615,79.3S33.162,65.011,27.291,52.754,19.585,26.684,19.236,13.1c-.066-2.585-.1-5.256-1.161-7.614A9.527,9.527,0,0,0,9.532,0,9.527,9.527,0,0,0,1.061,5.593a17.252,17.252,0,0,0-1.05,6.68A112.752,112.752,0,0,0,10.127,60.44a81.326,81.326,0,0,0,9.139,15.624C31.349,91.919,51.645,101.574,71.47,99.5s38.177-16.5,43.562-35.693A85.994,85.994,0,0,0,117.5,47.878q1.079-12.548,1.551-25.138c.157-4.17.248-8.446-1.093-12.4S113.532,2.77,109.44,1.953Z" transform="translate(-339.542 -481.094)" fill="#3c3c3b"/><path d="M761.378,14.829A33.239,33.239,0,0,0,741.1.077,30.741,30.741,0,0,0,716.571,4.72,37.5,37.5,0,0,0,706.7,15.583c-5.5,8.794-8.254,19.812-5.149,29.706,2.781,8.863,10.076,15.931,18.639,19.531,8.076,3.4,17.663,3.822,25.449-.194,7.354-3.793,12.345-11.014,15.875-18.5,2.606-5.526,4.612-11.518,4.328-17.621A28.715,28.715,0,0,0,761.378,14.829Z" transform="translate(-869.459 -464.117)" fill="#f193a4"/><path d="M18.229,4.987C8.6,11.651,2.288,23.051,2.27,34.759S8.751,58.093,18.992,63.768s23.849,4.9,33.078-2.305c5.16-4.027,8.807-9.708,11.54-15.657A40.182,40.182,0,0,0,67.587,31.59c.859-14.3-10.42-27.8-24.316-31.285A30.49,30.49,0,0,0,29.939-.154,31.644,31.644,0,0,0,18.229,4.987Z" transform="translate(-459.056 -464.144)" fill="#f193a4"/></g><g transform="translate(1957.44 1429.23)"><path d="M324.757,426.465c18.743-4.687,37.663-9.695,54.51-19.127,21.886-12.253,39.033-31.251,55.759-49.906,20.287-22.627,40.747-45.495,55.562-72,9.338-16.709,16.394-35.031,17.672-54.114,1.819-27.159-8.049-53.59-17.758-79.032-6.913-18.116-14.1-36.683-27.107-51.091C420.614,53.807,363.015,19.42,300.382,6.5A320.344,320.344,0,0,0,254.423.585c-56.29-3.3-114.435,7.142-162.407,36.677S7.449,116.777,1.068,172.612c-6.777,59.3,19.756,117.151,49.923,168.711,15.088,25.789,31.739,51.482,55.387,69.807,29.869,23.146,68.7,32.518,106.531,32.692S288.06,435.643,324.757,426.465Z" transform="translate(-491.36 -845.906)" fill="#f49b1c"/><path d="M533.615,39.485a26.812,26.812,0,0,0,10.657,2.46c4.67.252,9.671-.24,13.374-3.1a16.416,16.416,0,0,0,4.187-5.1,25.4,25.4,0,0,0-.423-24.9C556.813,1.189,547.07-3.665,538.6-.85a20.742,20.742,0,0,0-7.582,4.726,24.755,24.755,0,0,0-7.945,18.666C523.376,29.51,527.386,36.349,533.615,39.485Z" transform="translate(-659.606 -684.186)" fill="#3c3c3b"/><path d="M1.971,28.973A19.022,19.022,0,0,0,7.9,37.378c3.86,3.029,8.892,4.145,13.786,4.491,4.409.312,9.1-.007,12.792-2.435a17.086,17.086,0,0,0,6.253-8.448A26.635,26.635,0,0,0,32.668,1.67a15.494,15.494,0,0,0-4.749-2.728,14.877,14.877,0,0,0-4.838-.656A23.177,23.177,0,0,0,4.567,8.154,23.177,23.177,0,0,0,1.971,28.973Z" transform="translate(-404.775 -684.158)" fill="#3c3c3b"/><path d="M286.21,180.153a9.713,9.713,0,0,0-14.39-11.445c-6.125,3.929-5.937,12.723-5.674,20a125.1,125.1,0,0,1-4.228,37.024c-1.713,6.348-4.035,12.746-8.461,17.609-7.759,8.525-21.023,10.633-31.927,6.892s-19.542-12.478-25.346-22.437a71.469,71.469,0,0,1-9.408-41.593c.356-4.3,1.1-8.672.116-12.868s-4.3-8.245-8.6-8.4c-3.568-.131-6.795,2.475-8.417,5.655s-1.941,6.849-2.1,10.415c-.844,18.655,1.978,37.82,10.775,54.292s24.05,29.978,42.251,34.152,39.045-2.172,49.928-17.346c4.552-6.348,7.246-13.838,9.267-21.384a143.885,143.885,0,0,0,4.89-37.139C284.882,189.055,284.688,184.409,286.21,180.153Z" transform="translate(-486.677 -766.054)" fill="#3c3c3b"/><path d="M.916,36.445C.991,48.212,9.028,59.077,19.561,64.326c7.729,3.853,17.1,4.96,25.064,1.619s13.627-10.611,17.6-18.274c2.647-5.1,4.736-10.618,4.981-16.358.349-8.175-3.2-16.292-8.925-22.136C48.238-1.076,30.939-3.779,18.82,3.913,12.969,7.626,8.586,13.324,5.44,19.5,2.76,24.758.879,30.542.916,36.445" transform="translate(-447.001 -609.906)" fill="#e84457"/><path d="M690.967,40.235a35.661,35.661,0,0,0-18.5-15.964,30.761,30.761,0,0,0-24.224,1.269c-7.761,3.971-13.329,11.375-16.761,19.39-2.764,6.455-4.309,13.648-2.96,20.539a30.726,30.726,0,0,0,9.3,16.122c10.424,9.851,27.8,12.633,39.461,4.286,8.781-6.286,12.874-17.095,16.5-27.267.582-1.63-.608-5.141.268-5.017M663.267,90.163Z" transform="translate(-755.143 -621.132)" fill="#e84457"/><path d="M.258,85.1C-.836,92.38,1.751,99.652,4.3,106.556c1.01,2.739,4.341,3.692,7.223,4.149A110.278,110.278,0,0,0,80.155,98.946a116.921,116.921,0,0,0,48.66-50A239.549,239.549,0,0,0,138.8,25.164c1.98-5.233,3.979-10.989,2.186-16.289-2.206-6.523-10.1-10.091-16.8-8.5C100.675,5.965,77.239,12.85,56,24.389S15.7,52.47,4.408,73.841A35.912,35.912,0,0,0,.258,85.1" transform="translate(-217.862 -976.51)" fill="#70ad2f"/><path d="M13.912.777A10.276,10.276,0,0,0,2.434,3.343a10.275,10.275,0,0,0-1.093,11.71c17.38,29.274,22.282,64.7,19.274,98.609-.468,5.271,3.348,10.695,8.543,11.7s10.926-2.9,11.565-8.158A189.146,189.146,0,0,0,22.346,10.656C20.371,6.7,17.971,2.536,13.912.777" transform="translate(-249.814 -927.249)" fill="#aa7341"/></g></g></svg>