<svg xmlns="http://www.w3.org/2000/svg" width="3283" height="1460.314" viewBox="0 0 3283 1460.314"><g transform="translate(-192.524 -388)"><g transform="translate(192.524 388)"><text transform="translate(391.742 622)" font-size="539" font-family="Bevan"><tspan x="0" y="0" xml:space="preserve">CR    WD</tspan></text><text transform="translate(0 1216.314)" font-size="540" font-family="Bevan"><tspan x="0" y="0" xml:space="preserve">GR    WERS</tspan></text></g><g transform="translate(1638.078 1893.651)"><path d="M398.093,327.953A439.013,439.013,0,0,0,468,185.931c7.149-25.292,12.043-51.574,10.148-77.79s-11.061-52.509-29.077-71.648c-13.8-14.655-32.155-24.506-51.433-30.29C352-7.493,300.055,1.86,262.056,30.618c-6.882,5.208-16.593,4.968-24.774,2.219s-15.443-7.653-23.253-11.326c-18.351-8.629-39.178-10.229-59.456-10.251C117.1,11.22,77.624,16.921,48.036,39.911,22.425,59.809,7.066,91,2.062,123.039s-.4,64.962,8.4,96.179a365.525,365.525,0,0,0,48.422,104.64c19.271,28.651,43.938,55.457,76.263,67.6s73.4,5.843,94.012-21.861a78.526,78.526,0,0,0,43.566,26.3c24.6,5.244,50.687-1.874,71.995-15.233s38.369-32.517,53.372-52.7Z" transform="translate(-511.406 -673.253)" fill="#e84457"/><path d="M147.414,65.613a11.791,11.791,0,0,0-1.4-5.461C134.575,34.778,111.462,15.823,85.624,5.478A76.444,76.444,0,0,0,71.868,1.213,86.271,86.271,0,0,0,54.432.013,239,239,0,0,0,16.181,3.529c-4.362.758-8.938,1.753-12.206,4.74A12.556,12.556,0,0,0,.4,20.52c1.1,4.11,4.217,7.328,7.246,10.316C24.6,47.564,42.8,63.455,64.051,74.221S110,90.317,133.24,85.082c3.419-.771,7.2-2.11,8.6-5.327l4.334-10.02a12.582,12.582,0,0,0,1.245-4.123M40.6,1.3" transform="translate(-412.054 -749.724)" fill="#70ad2f"/><path d="M2.369,87.578a10.159,10.159,0,0,0,9,8.209,10.159,10.159,0,0,0,10.107-6.793c1.37-4.228-.219-8.76-1.114-13.113-2.053-9.994-.353-20.453,3-30.087s8.318-18.612,13-27.675c1.55-3,3.113-6.206,2.854-9.571A9.5,9.5,0,0,0,33.46.657a9.5,9.5,0,0,0-9.633,1.621,18.647,18.647,0,0,0-3.716,5.21C10.72,24.5,1.1,42.279.091,61.688c-.452,8.67.849,17.327,2.278,25.89" transform="translate(-275.034 -711.722)" fill="#aa7341"/><path d="M0,18.09c0,2.554,0,5.108.118,7.947C1.257,31.721,3.763,36.291,8.53,39.111c2.673,1.582,5.822,2.361,8.757,3.5,3.09,0,6.179,0,9.554-.118,6.706-1.413,10.978-5.068,12.72-11.475.514-1.889.964-3.795,1.444-5.693,0-2.018,0-4.037-.119-6.344-.663-3.973-1.9-7.465-4.4-10.193C32.946,4.914,29.932.022,23.609.25c-.094,0-.2-.163-.293-.25-2.152,0-4.3,0-6.735.117C11.074,1.5,7.644,5.159,4.289,9.026,1.981,11.685,1.061,14.9,0,18.09Z" transform="translate(-420.059 -530.299)" fill="#3d3d3c"/><path d="M31.294,3.367C30.115,2.492,29.4.9,27.969.574A23.588,23.588,0,0,0,7.191,5.887,22.1,22.1,0,0,0,.379,26.094a20.79,20.79,0,0,0,14.25,15.691,27.8,27.8,0,0,0,7.987.919c3.639-.04,7.4-.552,10.491-2.477a16.9,16.9,0,0,0,6.528-8.553A25.22,25.22,0,0,0,31.294,3.367Z" transform="translate(-177.558 -539.01)" fill="#3d3c3c"/><path d="M109.44,1.953A9.322,9.322,0,0,0,99.252,7.564c-1.347,3.5-.406,7.408.131,11.123,1.123,7.762.395,15.658-.335,23.467-.806,8.626-1.734,17.621-6.4,24.922C85.334,78.529,69.695,82.987,56.615,79.3S33.162,65.011,27.291,52.754,19.585,26.684,19.236,13.1c-.066-2.585-.1-5.256-1.161-7.614A9.527,9.527,0,0,0,9.532,0,9.527,9.527,0,0,0,1.061,5.593a17.252,17.252,0,0,0-1.05,6.68A112.752,112.752,0,0,0,10.127,60.44a81.326,81.326,0,0,0,9.139,15.624C31.349,91.919,51.645,101.574,71.47,99.5s38.177-16.5,43.562-35.693A85.994,85.994,0,0,0,117.5,47.878q1.079-12.548,1.551-25.138c.157-4.17.248-8.446-1.093-12.4S113.532,2.77,109.44,1.953Z" transform="translate(-339.542 -481.094)" fill="#3c3c3b"/><path d="M761.378,14.829A33.239,33.239,0,0,0,741.1.077,30.741,30.741,0,0,0,716.571,4.72,37.5,37.5,0,0,0,706.7,15.583c-5.5,8.794-8.254,19.812-5.149,29.706,2.781,8.863,10.076,15.931,18.639,19.531,8.076,3.4,17.663,3.822,25.449-.194,7.354-3.793,12.345-11.014,15.875-18.5,2.606-5.526,4.612-11.518,4.328-17.621A28.715,28.715,0,0,0,761.378,14.829Z" transform="translate(-869.459 -464.117)" fill="#f193a4"/><path d="M18.229,4.987C8.6,11.651,2.288,23.051,2.27,34.759S8.751,58.093,18.992,63.768s23.849,4.9,33.078-2.305c5.16-4.027,8.807-9.708,11.54-15.657A40.182,40.182,0,0,0,67.587,31.59c.859-14.3-10.42-27.8-24.316-31.285A30.49,30.49,0,0,0,29.939-.154,31.644,31.644,0,0,0,18.229,4.987Z" transform="translate(-459.056 -464.144)" fill="#f193a4"/></g><g transform="translate(1957.44 1429.23)"><path d="M324.757,426.465c18.743-4.687,37.663-9.695,54.51-19.127,21.886-12.253,39.033-31.251,55.759-49.906,20.287-22.627,40.747-45.495,55.562-72,9.338-16.709,16.394-35.031,17.672-54.114,1.819-27.159-8.049-53.59-17.758-79.032-6.913-18.116-14.1-36.683-27.107-51.091C420.614,53.807,363.015,19.42,300.382,6.5A320.344,320.344,0,0,0,254.423.585c-56.29-3.3-114.435,7.142-162.407,36.677S7.449,116.777,1.068,172.612c-6.777,59.3,19.756,117.151,49.923,168.711,15.088,25.789,31.739,51.482,55.387,69.807,29.869,23.146,68.7,32.518,106.531,32.692S288.06,435.643,324.757,426.465Z" transform="translate(-491.36 -845.906)" fill="#f49b1c"/><path d="M533.615,39.485a26.812,26.812,0,0,0,10.657,2.46c4.67.252,9.671-.24,13.374-3.1a16.416,16.416,0,0,0,4.187-5.1,25.4,25.4,0,0,0-.423-24.9C556.813,1.189,547.07-3.665,538.6-.85a20.742,20.742,0,0,0-7.582,4.726,24.755,24.755,0,0,0-7.945,18.666C523.376,29.51,527.386,36.349,533.615,39.485Z" transform="translate(-659.606 -684.186)" fill="#3c3c3b"/><path d="M1.971,28.973A19.022,19.022,0,0,0,7.9,37.378c3.86,3.029,8.892,4.145,13.786,4.491,4.409.312,9.1-.007,12.792-2.435a17.086,17.086,0,0,0,6.253-8.448A26.635,26.635,0,0,0,32.668,1.67a15.494,15.494,0,0,0-4.749-2.728,14.877,14.877,0,0,0-4.838-.656A23.177,23.177,0,0,0,4.567,8.154,23.177,23.177,0,0,0,1.971,28.973Z" transform="translate(-404.775 -684.158)" fill="#3c3c3b"/><path d="M286.21,180.153a9.713,9.713,0,0,0-14.39-11.445c-6.125,3.929-5.937,12.723-5.674,20a125.1,125.1,0,0,1-4.228,37.024c-1.713,6.348-4.035,12.746-8.461,17.609-7.759,8.525-21.023,10.633-31.927,6.892s-19.542-12.478-25.346-22.437a71.469,71.469,0,0,1-9.408-41.593c.356-4.3,1.1-8.672.116-12.868s-4.3-8.245-8.6-8.4c-3.568-.131-6.795,2.475-8.417,5.655s-1.941,6.849-2.1,10.415c-.844,18.655,1.978,37.82,10.775,54.292s24.05,29.978,42.251,34.152,39.045-2.172,49.928-17.346c4.552-6.348,7.246-13.838,9.267-21.384a143.885,143.885,0,0,0,4.89-37.139C284.882,189.055,284.688,184.409,286.21,180.153Z" transform="translate(-486.677 -766.054)" fill="#3c3c3b"/><path d="M.916,36.445C.991,48.212,9.028,59.077,19.561,64.326c7.729,3.853,17.1,4.96,25.064,1.619s13.627-10.611,17.6-18.274c2.647-5.1,4.736-10.618,4.981-16.358.349-8.175-3.2-16.292-8.925-22.136C48.238-1.076,30.939-3.779,18.82,3.913,12.969,7.626,8.586,13.324,5.44,19.5,2.76,24.758.879,30.542.916,36.445" transform="translate(-447.001 -609.906)" fill="#e84457"/><path d="M690.967,40.235a35.661,35.661,0,0,0-18.5-15.964,30.761,30.761,0,0,0-24.224,1.269c-7.761,3.971-13.329,11.375-16.761,19.39-2.764,6.455-4.309,13.648-2.96,20.539a30.726,30.726,0,0,0,9.3,16.122c10.424,9.851,27.8,12.633,39.461,4.286,8.781-6.286,12.874-17.095,16.5-27.267.582-1.63-.608-5.141.268-5.017M663.267,90.163Z" transform="translate(-755.143 -621.132)" fill="#e84457"/><path d="M.258,85.1C-.836,92.38,1.751,99.652,4.3,106.556c1.01,2.739,4.341,3.692,7.223,4.149A110.278,110.278,0,0,0,80.155,98.946a116.921,116.921,0,0,0,48.66-50A239.549,239.549,0,0,0,138.8,25.164c1.98-5.233,3.979-10.989,2.186-16.289-2.206-6.523-10.1-10.091-16.8-8.5C100.675,5.965,77.239,12.85,56,24.389S15.7,52.47,4.408,73.841A35.912,35.912,0,0,0,.258,85.1" transform="translate(-217.862 -976.51)" fill="#70ad2f"/><path d="M13.912.777A10.276,10.276,0,0,0,2.434,3.343a10.275,10.275,0,0,0-1.093,11.71c17.38,29.274,22.282,64.7,19.274,98.609-.468,5.271,3.348,10.695,8.543,11.7s10.926-2.9,11.565-8.158A189.146,189.146,0,0,0,22.346,10.656C20.371,6.7,17.971,2.536,13.912.777" transform="translate(-249.814 -927.249)" fill="#aa7341"/></g></g></svg>