<svg xmlns="http://www.w3.org/2000/svg" width="2151.333" height="2430.359" viewBox="0 0 2151.333 2430.359"><g transform="translate(491.36 976.51)"><path d="M1374.024,1810.5c79.3-19.9,159.351-41.158,230.628-81.2,92.6-52.017,165.146-132.672,235.911-211.869,85.831-96.061,172.4-193.141,235.079-305.684,39.508-70.936,69.361-148.719,74.769-229.733,7.695-115.3-34.055-227.511-75.134-335.52-29.249-76.907-59.648-155.735-114.686-216.9-181-201.164-424.7-347.15-689.7-401.989C1206.838,14.35,1141.745,6.324,1076.444,2.484,838.286-11.522,592.279,32.806,389.313,158.19S31.515,495.762,4.517,732.8C-24.156,984.558,88.1,1230.147,215.736,1449.039,279.574,1558.523,350.022,1667.6,450.073,1745.4c126.372,98.263,290.651,138.049,450.727,138.788S1218.76,1849.463,1374.024,1810.5Z" transform="translate(-491.36 -430.347)" fill="#f49b1c"/><path d="M567.22,170.4c13.716,6.906,29.232,9.457,44.566,10.286,19.528,1.056,40.444-1,55.926-12.953,7.335-5.662,13.008-13.245,17.508-21.346,17.653-31.786,16.955-72.972-1.768-104.14-19.222-32-59.964-52.3-95.381-40.523-11.913,3.96-22.58,11.145-31.708,19.765-21.2,20.027-34.491,48.922-33.226,78.06S541.17,157.282,567.22,170.4Z" transform="translate(488.313 256.107)" fill="#3c3c3b"/><path d="M6.343,126.621c5.04,13.617,13.366,26.185,24.789,35.149,16.142,12.666,37.185,17.333,57.651,18.78,18.439,1.3,38.048-.028,53.495-10.182,12.449-8.184,20.923-21.376,26.15-35.327,15.891-42.412,1.629-94.274-33.713-122.6-5.989-4.8-12.571-9-19.859-11.409A62.215,62.215,0,0,0,94.626-1.71,96.924,96.924,0,0,0,17.2,39.557,96.924,96.924,0,0,0,6.343,126.621Z" transform="translate(-122.716 256.04)" fill="#3c3c3b"/><path d="M663.522,228.607c5.662-15.838.2-34.995-12.963-45.465s-33.057-11.479-47.213-2.4c-25.616,16.432-24.826,53.208-23.728,83.62a523.131,523.131,0,0,1-17.68,154.829c-7.162,26.549-16.875,53.3-35.383,73.64-32.445,35.652-87.914,44.464-133.513,28.822s-81.72-52.182-105.995-93.828a298.873,298.873,0,0,1-39.342-173.936c1.491-17.962,4.6-36.264.484-53.811s-17.966-34.478-35.977-35.138c-14.92-.549-28.414,10.351-35.2,23.65s-8.118,28.642-8.791,43.555c-3.53,78.012,8.272,158.157,45.059,227.041S313.855,584.556,389.971,602.01s163.281-9.082,208.793-72.54c19.038-26.546,30.3-57.87,38.752-89.424a601.7,601.7,0,0,0,20.448-155.308C657.968,265.832,657.159,246.406,663.522,228.607Z" transform="translate(72.632 450.931)" fill="#3c3c3b"/><path d="M.918,154.036c.312,49.211,33.924,94.645,77.969,116.6,32.323,16.112,71.509,20.74,104.812,6.769s56.987-44.375,73.617-76.421c11.069-21.328,19.807-44.4,20.831-68.409C279.605,98.387,264.772,64.443,240.824,40,198.809-2.868,126.469-14.174,75.787,17.993,51.321,33.521,32.992,57.349,19.835,83.169,8.627,105.163.761,129.351.918,154.036" transform="translate(-302.942 575.336)" fill="#e84457"/><path d="M891.242,97.039C874.1,66.771,846.556,42.171,813.866,30.28s-70.335-10.538-101.3,5.307c-32.455,16.608-55.74,47.571-70.091,81.084-11.559,26.995-18.019,57.072-12.38,85.891,5.065,25.874,19.721,49.312,38.883,67.42,43.591,41.2,116.254,52.83,165.022,17.922,36.723-26.289,53.839-71.489,69.009-114.026,2.432-6.817-2.544-21.5,1.121-20.98M775.4,305.83Z" transform="translate(424.363 601.889)" fill="#e84457"/><path d="M1.077,355.89C-3.5,386.322,7.324,416.728,17.97,445.6c4.222,11.452,18.152,15.437,30.207,17.352,97.565,15.492,199.884-2.635,287.021-49.174S493.985,292.76,538.685,204.665c16.276-32.075,29.04-65.792,41.773-99.432C588.74,83.35,597.1,59.28,589.6,37.117c-9.227-27.28-42.239-42.2-70.259-35.54C421.007,24.943,323,53.736,234.191,101.989S65.643,219.421,18.433,308.791c-7.853,14.867-14.856,30.473-17.356,47.1" transform="translate(670.973 -976.51)" fill="#70ad2f"/><path d="M58.178,3.249C42.1-3.72,21.762.825,10.178,13.98s-13.52,33.9-4.573,48.971c72.682,122.421,93.181,270.556,80.6,412.37-1.955,22.042,14,44.723,35.728,48.923S167.626,512.1,170.3,490.13c18.468-151.758-8.612-308.765-76.851-445.567C85.189,28.007,75.153,10.606,58.178,3.249" transform="translate(531.672 -770.51)" fill="#aa7341"/></g></svg>